<mxfile host="65bd71144e" modified="2020-12-02T08:24:50.767Z" agent="5.0 (Macintosh; Intel Mac OS X 10_15_7) AppleWebKit/537.36 (KHTML, like Gecko) Code/1.51.1 Chrome/83.0.4103.122 Electron/9.3.3 Safari/537.36" version="13.6.5" etag="DOfgONadSZu0wgEiS8OR">
    <diagram id="NzisQHAZ7LALOhJfIs4C" name="ページ1">
        <mxGraphModel dx="1073" dy="855" grid="1" gridSize="10" guides="1" tooltips="1" connect="1" arrows="1" fold="1" page="1" pageScale="1" pageWidth="827" pageHeight="1169" math="0" shadow="0">
            <root>
                <mxCell id="0"/>
                <mxCell id="1" parent="0"/>
                <mxCell id="2" value="" style="rounded=1;whiteSpace=wrap;html=1;arcSize=8;" vertex="1" parent="1">
                    <mxGeometry x="40" y="40" width="420" height="260" as="geometry"/>
                </mxCell>
                <mxCell id="3" value="" style="endArrow=none;html=1;exitX=0;exitY=0.135;exitDx=0;exitDy=0;exitPerimeter=0;entryX=1;entryY=0.138;entryDx=0;entryDy=0;entryPerimeter=0;" edge="1" parent="1" source="2" target="2">
                    <mxGeometry width="50" height="50" relative="1" as="geometry">
                        <mxPoint x="220" y="110" as="sourcePoint"/>
                        <mxPoint x="270" y="60" as="targetPoint"/>
                    </mxGeometry>
                </mxCell>
                <mxCell id="4" value="トップページ" style="text;html=1;align=center;verticalAlign=middle;resizable=0;points=[];autosize=1;" vertex="1" parent="1">
                    <mxGeometry x="205" y="50" width="90" height="20" as="geometry"/>
                </mxCell>
                <mxCell id="5" value="投稿ボタン" style="text;html=1;align=center;verticalAlign=middle;resizable=0;points=[];autosize=1;" vertex="1" parent="1">
                    <mxGeometry x="210" y="110" width="80" height="20" as="geometry"/>
                </mxCell>
                <mxCell id="6" value="" style="rounded=1;whiteSpace=wrap;html=1;" vertex="1" parent="1">
                    <mxGeometry x="40" y="160" width="420" height="140" as="geometry"/>
                </mxCell>
                <mxCell id="31" style="edgeStyle=orthogonalEdgeStyle;rounded=0;orthogonalLoop=1;jettySize=auto;html=1;" edge="1" parent="1" source="8">
                    <mxGeometry relative="1" as="geometry">
                        <mxPoint x="20" y="770" as="targetPoint"/>
                        <Array as="points">
                            <mxPoint x="20" y="200"/>
                        </Array>
                    </mxGeometry>
                </mxCell>
                <mxCell id="8" value="" style="shape=card;whiteSpace=wrap;html=1;size=20;" vertex="1" parent="1">
                    <mxGeometry x="50" y="170" width="50" height="60" as="geometry"/>
                </mxCell>
                <mxCell id="9" value="" style="shape=card;whiteSpace=wrap;html=1;size=20;" vertex="1" parent="1">
                    <mxGeometry x="140" y="170" width="50" height="60" as="geometry"/>
                </mxCell>
                <mxCell id="10" value="" style="shape=card;whiteSpace=wrap;html=1;size=20;" vertex="1" parent="1">
                    <mxGeometry x="310" y="170" width="50" height="60" as="geometry"/>
                </mxCell>
                <mxCell id="11" value="" style="shape=card;whiteSpace=wrap;html=1;size=20;" vertex="1" parent="1">
                    <mxGeometry x="400" y="170" width="50" height="60" as="geometry"/>
                </mxCell>
                <mxCell id="14" style="edgeStyle=orthogonalEdgeStyle;rounded=0;orthogonalLoop=1;jettySize=auto;html=1;" edge="1" parent="1" source="12">
                    <mxGeometry relative="1" as="geometry">
                        <mxPoint x="680" y="120" as="targetPoint"/>
                    </mxGeometry>
                </mxCell>
                <mxCell id="12" value="投稿ボタン" style="rounded=1;whiteSpace=wrap;html=1;arcSize=25;" vertex="1" parent="1">
                    <mxGeometry x="202.5" y="105" width="100" height="30" as="geometry"/>
                </mxCell>
                <mxCell id="23" style="edgeStyle=orthogonalEdgeStyle;rounded=0;orthogonalLoop=1;jettySize=auto;html=1;" edge="1" parent="1" source="13">
                    <mxGeometry relative="1" as="geometry">
                        <mxPoint x="252.5" y="400" as="targetPoint"/>
                    </mxGeometry>
                </mxCell>
                <mxCell id="13" value="投稿一覧" style="rounded=1;whiteSpace=wrap;html=1;" vertex="1" parent="1">
                    <mxGeometry x="210" y="220" width="85" height="20" as="geometry"/>
                </mxCell>
                <mxCell id="15" value="" style="rounded=1;whiteSpace=wrap;html=1;" vertex="1" parent="1">
                    <mxGeometry x="680" y="40" width="470" height="260" as="geometry"/>
                </mxCell>
                <mxCell id="16" value="" style="rounded=1;whiteSpace=wrap;html=1;" vertex="1" parent="1">
                    <mxGeometry x="850" y="90" width="120" height="20" as="geometry"/>
                </mxCell>
                <mxCell id="17" value="" style="rounded=1;whiteSpace=wrap;html=1;" vertex="1" parent="1">
                    <mxGeometry x="850" y="120" width="120" height="20" as="geometry"/>
                </mxCell>
                <mxCell id="18" value="" style="rounded=1;whiteSpace=wrap;html=1;" vertex="1" parent="1">
                    <mxGeometry x="850" y="150" width="120" height="20" as="geometry"/>
                </mxCell>
                <mxCell id="19" value="" style="rounded=1;whiteSpace=wrap;html=1;" vertex="1" parent="1">
                    <mxGeometry x="850" y="180" width="120" height="20" as="geometry"/>
                </mxCell>
                <mxCell id="20" value="" style="rounded=1;whiteSpace=wrap;html=1;" vertex="1" parent="1">
                    <mxGeometry x="850" y="210" width="120" height="20" as="geometry"/>
                </mxCell>
                <mxCell id="22" style="edgeStyle=orthogonalEdgeStyle;rounded=0;orthogonalLoop=1;jettySize=auto;html=1;entryX=1.002;entryY=0.643;entryDx=0;entryDy=0;entryPerimeter=0;" edge="1" parent="1" source="21" target="6">
                    <mxGeometry relative="1" as="geometry"/>
                </mxCell>
                <mxCell id="21" value="投稿する" style="rounded=1;whiteSpace=wrap;html=1;" vertex="1" parent="1">
                    <mxGeometry x="870" y="240" width="80" height="20" as="geometry"/>
                </mxCell>
                <mxCell id="24" value="" style="rounded=1;whiteSpace=wrap;html=1;arcSize=6;" vertex="1" parent="1">
                    <mxGeometry x="40" y="400" width="420" height="250" as="geometry"/>
                </mxCell>
                <mxCell id="25" value="" style="endArrow=none;html=1;" edge="1" parent="1">
                    <mxGeometry width="50" height="50" relative="1" as="geometry">
                        <mxPoint x="40" y="430" as="sourcePoint"/>
                        <mxPoint x="460" y="430" as="targetPoint"/>
                    </mxGeometry>
                </mxCell>
                <mxCell id="27" value="" style="shape=card;whiteSpace=wrap;html=1;size=20;" vertex="1" parent="1">
                    <mxGeometry x="70" y="460" width="50" height="60" as="geometry"/>
                </mxCell>
                <mxCell id="32" style="edgeStyle=orthogonalEdgeStyle;rounded=0;orthogonalLoop=1;jettySize=auto;html=1;entryX=0.34;entryY=-0.014;entryDx=0;entryDy=0;entryPerimeter=0;" edge="1" parent="1" source="28" target="33">
                    <mxGeometry relative="1" as="geometry">
                        <mxPoint x="165" y="760" as="targetPoint"/>
                        <Array as="points">
                            <mxPoint x="165" y="757"/>
                        </Array>
                    </mxGeometry>
                </mxCell>
                <mxCell id="28" value="" style="shape=card;whiteSpace=wrap;html=1;size=20;" vertex="1" parent="1">
                    <mxGeometry x="140" y="460" width="50" height="60" as="geometry"/>
                </mxCell>
                <mxCell id="29" value="" style="shape=card;whiteSpace=wrap;html=1;size=20;" vertex="1" parent="1">
                    <mxGeometry x="280" y="460" width="50" height="60" as="geometry"/>
                </mxCell>
                <mxCell id="30" value="" style="shape=card;whiteSpace=wrap;html=1;size=20;" vertex="1" parent="1">
                    <mxGeometry x="360" y="460" width="50" height="60" as="geometry"/>
                </mxCell>
                <mxCell id="33" value="詳細画面" style="rounded=1;whiteSpace=wrap;html=1;" vertex="1" parent="1">
                    <mxGeometry x="20" y="760" width="430" height="210" as="geometry"/>
                </mxCell>
                <mxCell id="34" value="検索画面" style="text;html=1;strokeColor=none;fillColor=none;align=center;verticalAlign=middle;whiteSpace=wrap;rounded=0;" vertex="1" parent="1">
                    <mxGeometry x="222.5" y="410" width="60" height="20" as="geometry"/>
                </mxCell>
                <mxCell id="35" value="新規投稿画面" style="text;html=1;align=center;verticalAlign=middle;resizable=0;points=[];autosize=1;" vertex="1" parent="1">
                    <mxGeometry x="865" y="50" width="90" height="20" as="geometry"/>
                </mxCell>
            </root>
        </mxGraphModel>
    </diagram>
</mxfile>